<svg width="28" height="28" viewBox="0 0 28 28" fill="none" xmlns="http://www.w3.org/2000/svg">
<path d="M14 2.375C7.58125 2.375 2.375 7.58125 2.375 14C2.375 20.4188 7.58125 25.625 14 25.625C20.4188 25.625 25.625 20.4188 25.625 14C25.625 7.58125 20.4188 2.375 14 2.375ZM19.7625 11.0531L14.2 18.7406C14.177 18.7726 14.1467 18.7986 14.1117 18.8165C14.0766 18.8345 14.0378 18.8438 13.9984 18.8438C13.9591 18.8438 13.9203 18.8345 13.8852 18.8165C13.8502 18.7986 13.8199 18.7726 13.7969 18.7406L8.23438 11.0531C8.11562 10.8875 8.23438 10.6562 8.4375 10.6562H9.90312C10.225 10.6562 10.525 10.8094 10.7125 11.0688L14 15.6125L17.2875 11.0688C17.475 10.8094 17.7781 10.6562 18.0969 10.6562H19.5625C19.7656 10.6562 19.8844 10.8875 19.7625 11.0531Z" fill="#D7FFD7"/>
<path d="M14 0C6.26875 0 0 6.26875 0 14C0 21.7313 6.26875 28 14 28C21.7313 28 28 21.7313 28 14C28 6.26875 21.7313 0 14 0ZM14 25.625C7.58125 25.625 2.375 20.4188 2.375 14C2.375 7.58125 7.58125 2.375 14 2.375C20.4188 2.375 25.625 7.58125 25.625 14C25.625 20.4188 20.4188 25.625 14 25.625Z" fill="#299647"/>
<path d="M19.5625 10.6563H18.0968C17.7781 10.6563 17.475 10.8094 17.2875 11.0688L14 15.6126L10.7125 11.0688C10.525 10.8094 10.225 10.6563 9.90309 10.6563H8.43747C8.23434 10.6563 8.11559 10.8876 8.23434 11.0532L13.7968 18.7407C13.8968 18.8782 14.1 18.8782 14.2 18.7407L19.7625 11.0532C19.8843 10.8876 19.7656 10.6563 19.5625 10.6563Z" fill="#299647"/>
</svg>
